<mxfile host="app.diagrams.net" agent="Mozilla/5.0 (Windows NT 10.0; Win64; x64; rv:133.0) Gecko/20100101 Firefox/133.0" version="26.0.1">
  <diagram name="Page-1" id="1Ubk731AcMISsNPDn_pn">
    <mxGraphModel dx="1964" dy="574" grid="1" gridSize="10" guides="1" tooltips="1" connect="1" arrows="1" fold="1" page="1" pageScale="1" pageWidth="850" pageHeight="1100" math="0" shadow="0">
      <root>
        <mxCell id="0" />
        <mxCell id="1" parent="0" />
        <mxCell id="mzLPds9XOfaqiBmdi5fC-31" value="" style="rounded=0;whiteSpace=wrap;html=1;" vertex="1" parent="1">
          <mxGeometry x="30" y="320" width="340" height="140" as="geometry" />
        </mxCell>
        <mxCell id="ZeuMcyJfO8ai9Yq1En-Y-1" value="RESERVATION T2" style="rounded=1;whiteSpace=wrap;html=1;" parent="1" vertex="1">
          <mxGeometry x="200" y="370" width="160" height="40" as="geometry" />
        </mxCell>
        <mxCell id="ZeuMcyJfO8ai9Yq1En-Y-2" value="RESERVATION T1" style="rounded=1;whiteSpace=wrap;html=1;" parent="1" vertex="1">
          <mxGeometry x="200" y="410" width="160" height="40" as="geometry" />
        </mxCell>
        <mxCell id="ZeuMcyJfO8ai9Yq1En-Y-3" value="RESERVATION T3" style="rounded=1;whiteSpace=wrap;html=1;" parent="1" vertex="1">
          <mxGeometry x="200" y="330" width="160" height="40" as="geometry" />
        </mxCell>
        <mxCell id="ZeuMcyJfO8ai9Yq1En-Y-4" value="INSTRUCTION BUFFER" style="rounded=1;whiteSpace=wrap;html=1;" parent="1" vertex="1">
          <mxGeometry x="40" y="80" width="160" height="40" as="geometry" />
        </mxCell>
        <mxCell id="ZeuMcyJfO8ai9Yq1En-Y-5" value="PC BUFFER" style="rounded=1;whiteSpace=wrap;html=1;" parent="1" vertex="1">
          <mxGeometry x="40" y="40" width="160" height="40" as="geometry" />
        </mxCell>
        <mxCell id="ZeuMcyJfO8ai9Yq1En-Y-6" value="PROGRAM MEMORY" style="rounded=1;whiteSpace=wrap;html=1;" parent="1" vertex="1">
          <mxGeometry x="40" y="160" width="160" height="40" as="geometry" />
        </mxCell>
        <mxCell id="ZeuMcyJfO8ai9Yq1En-Y-7" value="WRITE RAT" style="rounded=1;whiteSpace=wrap;html=1;" parent="1" vertex="1">
          <mxGeometry x="40" y="330" width="160" height="40" as="geometry" />
        </mxCell>
        <mxCell id="ZeuMcyJfO8ai9Yq1En-Y-8" value="READ RAT" style="rounded=1;whiteSpace=wrap;html=1;" parent="1" vertex="1">
          <mxGeometry x="40" y="370" width="160" height="40" as="geometry" />
        </mxCell>
        <mxCell id="ZeuMcyJfO8ai9Yq1En-Y-9" value="INSTRUCTION COUNTER" style="rounded=1;whiteSpace=wrap;html=1;" parent="1" vertex="1">
          <mxGeometry x="40" y="410" width="160" height="40" as="geometry" />
        </mxCell>
        <mxCell id="ZeuMcyJfO8ai9Yq1En-Y-10" value="DECODE" style="rounded=1;whiteSpace=wrap;html=1;" parent="1" vertex="1">
          <mxGeometry x="240" y="80" width="160" height="40" as="geometry" />
        </mxCell>
        <mxCell id="ZeuMcyJfO8ai9Yq1En-Y-11" value="REGISTER FILE" style="rounded=1;whiteSpace=wrap;html=1;" parent="1" vertex="1">
          <mxGeometry x="690" y="320" width="160" height="40" as="geometry" />
        </mxCell>
        <mxCell id="ZeuMcyJfO8ai9Yq1En-Y-12" value="ALU" style="rounded=1;whiteSpace=wrap;html=1;" parent="1" vertex="1">
          <mxGeometry x="680" y="40" width="160" height="40" as="geometry" />
        </mxCell>
        <mxCell id="ZeuMcyJfO8ai9Yq1En-Y-13" value="DATA MEMORY" style="rounded=1;whiteSpace=wrap;html=1;" parent="1" vertex="1">
          <mxGeometry x="690" y="240" width="160" height="40" as="geometry" />
        </mxCell>
        <mxCell id="ZeuMcyJfO8ai9Yq1En-Y-14" value="CACHE " style="rounded=1;whiteSpace=wrap;html=1;" parent="1" vertex="1">
          <mxGeometry x="690" y="200" width="160" height="40" as="geometry" />
        </mxCell>
        <mxCell id="ZeuMcyJfO8ai9Yq1En-Y-15" value="MEMORY BUFFER" style="rounded=1;whiteSpace=wrap;html=1;" parent="1" vertex="1">
          <mxGeometry x="690" y="120" width="160" height="40" as="geometry" />
        </mxCell>
        <mxCell id="ZeuMcyJfO8ai9Yq1En-Y-16" value="CACHE CONTROL" style="rounded=1;whiteSpace=wrap;html=1;" parent="1" vertex="1">
          <mxGeometry x="690" y="160" width="160" height="40" as="geometry" />
        </mxCell>
        <mxCell id="ZeuMcyJfO8ai9Yq1En-Y-17" value="CONTROL" style="rounded=1;whiteSpace=wrap;html=1;" parent="1" vertex="1">
          <mxGeometry x="440" y="40" width="160" height="440" as="geometry" />
        </mxCell>
        <mxCell id="ZeuMcyJfO8ai9Yq1En-Y-18" value="WRITE BACK FIFO D" style="rounded=1;whiteSpace=wrap;html=1;" parent="1" vertex="1">
          <mxGeometry x="690" y="440" width="160" height="40" as="geometry" />
        </mxCell>
        <mxCell id="ZeuMcyJfO8ai9Yq1En-Y-19" value="WRITE BACK FIFO S2" style="rounded=1;whiteSpace=wrap;html=1;" parent="1" vertex="1">
          <mxGeometry x="690" y="400" width="160" height="40" as="geometry" />
        </mxCell>
        <mxCell id="ZeuMcyJfO8ai9Yq1En-Y-20" value="WRITE BACK FIFO S1" style="rounded=1;whiteSpace=wrap;html=1;" parent="1" vertex="1">
          <mxGeometry x="690" y="360" width="160" height="40" as="geometry" />
        </mxCell>
        <mxCell id="mzLPds9XOfaqiBmdi5fC-2" value="" style="curved=1;endArrow=classic;html=1;rounded=0;" edge="1" parent="1">
          <mxGeometry width="50" height="50" relative="1" as="geometry">
            <mxPoint x="680" y="180" as="sourcePoint" />
            <mxPoint x="680" y="220" as="targetPoint" />
            <Array as="points">
              <mxPoint x="630" y="210" />
            </Array>
          </mxGeometry>
        </mxCell>
        <mxCell id="mzLPds9XOfaqiBmdi5fC-3" value="" style="curved=1;endArrow=classic;html=1;rounded=0;" edge="1" parent="1">
          <mxGeometry width="50" height="50" relative="1" as="geometry">
            <mxPoint x="680" y="230" as="sourcePoint" />
            <mxPoint x="680" y="270" as="targetPoint" />
            <Array as="points">
              <mxPoint x="630" y="260" />
            </Array>
          </mxGeometry>
        </mxCell>
        <mxCell id="mzLPds9XOfaqiBmdi5fC-4" value="" style="endArrow=classic;html=1;rounded=0;" edge="1" parent="1">
          <mxGeometry width="50" height="50" relative="1" as="geometry">
            <mxPoint x="610" y="130" as="sourcePoint" />
            <mxPoint x="670" y="60" as="targetPoint" />
          </mxGeometry>
        </mxCell>
        <mxCell id="mzLPds9XOfaqiBmdi5fC-5" value="" style="endArrow=classic;html=1;rounded=0;" edge="1" parent="1">
          <mxGeometry width="50" height="50" relative="1" as="geometry">
            <mxPoint x="610" y="130" as="sourcePoint" />
            <mxPoint x="680" y="130" as="targetPoint" />
          </mxGeometry>
        </mxCell>
        <mxCell id="mzLPds9XOfaqiBmdi5fC-6" value="" style="curved=1;endArrow=classic;html=1;rounded=0;" edge="1" parent="1">
          <mxGeometry width="50" height="50" relative="1" as="geometry">
            <mxPoint x="680" y="140" as="sourcePoint" />
            <mxPoint x="680" y="180" as="targetPoint" />
            <Array as="points">
              <mxPoint x="630" y="170" />
            </Array>
          </mxGeometry>
        </mxCell>
        <mxCell id="mzLPds9XOfaqiBmdi5fC-8" value="" style="endArrow=classic;html=1;rounded=0;entryX=0;entryY=0.5;entryDx=0;entryDy=0;exitX=1.013;exitY=0.686;exitDx=0;exitDy=0;exitPerimeter=0;" edge="1" parent="1" source="ZeuMcyJfO8ai9Yq1En-Y-17" target="ZeuMcyJfO8ai9Yq1En-Y-11">
          <mxGeometry width="50" height="50" relative="1" as="geometry">
            <mxPoint x="400" y="320" as="sourcePoint" />
            <mxPoint x="450" y="270" as="targetPoint" />
          </mxGeometry>
        </mxCell>
        <mxCell id="mzLPds9XOfaqiBmdi5fC-9" value="" style="endArrow=none;html=1;rounded=0;" edge="1" parent="1">
          <mxGeometry width="50" height="50" relative="1" as="geometry">
            <mxPoint x="640" y="460" as="sourcePoint" />
            <mxPoint x="640" y="380" as="targetPoint" />
          </mxGeometry>
        </mxCell>
        <mxCell id="mzLPds9XOfaqiBmdi5fC-10" value="" style="endArrow=classic;html=1;rounded=0;" edge="1" parent="1">
          <mxGeometry width="50" height="50" relative="1" as="geometry">
            <mxPoint x="640" y="379.5" as="sourcePoint" />
            <mxPoint x="690" y="379.5" as="targetPoint" />
          </mxGeometry>
        </mxCell>
        <mxCell id="mzLPds9XOfaqiBmdi5fC-11" value="" style="endArrow=classic;html=1;rounded=0;" edge="1" parent="1">
          <mxGeometry width="50" height="50" relative="1" as="geometry">
            <mxPoint x="640" y="420" as="sourcePoint" />
            <mxPoint x="690" y="420" as="targetPoint" />
          </mxGeometry>
        </mxCell>
        <mxCell id="mzLPds9XOfaqiBmdi5fC-12" value="" style="endArrow=classic;html=1;rounded=0;" edge="1" parent="1">
          <mxGeometry width="50" height="50" relative="1" as="geometry">
            <mxPoint x="640" y="459.5" as="sourcePoint" />
            <mxPoint x="690" y="459.5" as="targetPoint" />
          </mxGeometry>
        </mxCell>
        <mxCell id="mzLPds9XOfaqiBmdi5fC-14" value="" style="endArrow=none;html=1;rounded=0;" edge="1" parent="1">
          <mxGeometry width="50" height="50" relative="1" as="geometry">
            <mxPoint x="600" y="420" as="sourcePoint" />
            <mxPoint x="640" y="419.5" as="targetPoint" />
          </mxGeometry>
        </mxCell>
        <mxCell id="mzLPds9XOfaqiBmdi5fC-17" value="DECODE" style="rounded=1;whiteSpace=wrap;html=1;" vertex="1" parent="1">
          <mxGeometry x="40" y="240" width="160" height="40" as="geometry" />
        </mxCell>
        <mxCell id="mzLPds9XOfaqiBmdi5fC-18" value="" style="endArrow=classic;html=1;rounded=0;entryX=0;entryY=0.5;entryDx=0;entryDy=0;" edge="1" parent="1" target="ZeuMcyJfO8ai9Yq1En-Y-4">
          <mxGeometry width="50" height="50" relative="1" as="geometry">
            <mxPoint y="100" as="sourcePoint" />
            <mxPoint x="450" y="230" as="targetPoint" />
          </mxGeometry>
        </mxCell>
        <mxCell id="mzLPds9XOfaqiBmdi5fC-19" value="" style="endArrow=classic;html=1;rounded=0;entryX=0;entryY=0.5;entryDx=0;entryDy=0;" edge="1" parent="1">
          <mxGeometry width="50" height="50" relative="1" as="geometry">
            <mxPoint y="59.5" as="sourcePoint" />
            <mxPoint x="40" y="59.5" as="targetPoint" />
          </mxGeometry>
        </mxCell>
        <mxCell id="mzLPds9XOfaqiBmdi5fC-21" value="" style="endArrow=none;html=1;rounded=0;" edge="1" parent="1">
          <mxGeometry width="50" height="50" relative="1" as="geometry">
            <mxPoint y="60" as="sourcePoint" />
            <mxPoint y="260" as="targetPoint" />
          </mxGeometry>
        </mxCell>
        <mxCell id="mzLPds9XOfaqiBmdi5fC-22" value="" style="endArrow=classic;html=1;rounded=0;exitX=0;exitY=0.5;exitDx=0;exitDy=0;" edge="1" parent="1" source="ZeuMcyJfO8ai9Yq1En-Y-6">
          <mxGeometry width="50" height="50" relative="1" as="geometry">
            <mxPoint x="400" y="320" as="sourcePoint" />
            <mxPoint y="180" as="targetPoint" />
          </mxGeometry>
        </mxCell>
        <mxCell id="mzLPds9XOfaqiBmdi5fC-23" value="" style="endArrow=classic;html=1;rounded=0;entryX=0;entryY=0.5;entryDx=0;entryDy=0;" edge="1" parent="1">
          <mxGeometry width="50" height="50" relative="1" as="geometry">
            <mxPoint y="259.5" as="sourcePoint" />
            <mxPoint x="40" y="259.5" as="targetPoint" />
          </mxGeometry>
        </mxCell>
        <mxCell id="mzLPds9XOfaqiBmdi5fC-24" value="" style="endArrow=classic;html=1;rounded=0;entryX=0;entryY=0.5;entryDx=0;entryDy=0;" edge="1" parent="1" target="ZeuMcyJfO8ai9Yq1En-Y-10">
          <mxGeometry width="50" height="50" relative="1" as="geometry">
            <mxPoint x="200" y="100" as="sourcePoint" />
            <mxPoint x="450" y="230" as="targetPoint" />
          </mxGeometry>
        </mxCell>
        <mxCell id="mzLPds9XOfaqiBmdi5fC-25" value="" style="endArrow=classic;html=1;rounded=0;entryX=0;entryY=0.045;entryDx=0;entryDy=0;entryPerimeter=0;" edge="1" parent="1" target="ZeuMcyJfO8ai9Yq1En-Y-17">
          <mxGeometry width="50" height="50" relative="1" as="geometry">
            <mxPoint x="200" y="60" as="sourcePoint" />
            <mxPoint x="450" y="230" as="targetPoint" />
          </mxGeometry>
        </mxCell>
        <mxCell id="mzLPds9XOfaqiBmdi5fC-26" value="" style="endArrow=classic;html=1;rounded=0;entryX=-0.025;entryY=0.136;entryDx=0;entryDy=0;entryPerimeter=0;" edge="1" parent="1" target="ZeuMcyJfO8ai9Yq1En-Y-17">
          <mxGeometry width="50" height="50" relative="1" as="geometry">
            <mxPoint x="400" y="100" as="sourcePoint" />
            <mxPoint x="450" y="230" as="targetPoint" />
          </mxGeometry>
        </mxCell>
        <mxCell id="mzLPds9XOfaqiBmdi5fC-27" value="" style="endArrow=classic;html=1;rounded=0;exitX=0;exitY=0.318;exitDx=0;exitDy=0;exitPerimeter=0;" edge="1" parent="1" source="ZeuMcyJfO8ai9Yq1En-Y-17">
          <mxGeometry width="50" height="50" relative="1" as="geometry">
            <mxPoint x="400" y="280" as="sourcePoint" />
            <mxPoint x="200" y="180" as="targetPoint" />
          </mxGeometry>
        </mxCell>
        <mxCell id="mzLPds9XOfaqiBmdi5fC-29" value="" style="endArrow=classic;html=1;rounded=0;exitX=0.5;exitY=1;exitDx=0;exitDy=0;" edge="1" parent="1" source="mzLPds9XOfaqiBmdi5fC-17">
          <mxGeometry width="50" height="50" relative="1" as="geometry">
            <mxPoint x="400" y="280" as="sourcePoint" />
            <mxPoint x="120" y="310" as="targetPoint" />
          </mxGeometry>
        </mxCell>
        <mxCell id="mzLPds9XOfaqiBmdi5fC-30" value="" style="curved=1;endArrow=classic;html=1;rounded=0;exitX=0.5;exitY=1;exitDx=0;exitDy=0;" edge="1" parent="1" source="ZeuMcyJfO8ai9Yq1En-Y-18">
          <mxGeometry width="50" height="50" relative="1" as="geometry">
            <mxPoint x="782.96" y="512" as="sourcePoint" />
            <mxPoint x="120" y="480" as="targetPoint" />
            <Array as="points">
              <mxPoint x="610" y="550" />
              <mxPoint x="400" y="560" />
              <mxPoint x="200" y="560" />
            </Array>
          </mxGeometry>
        </mxCell>
        <mxCell id="mzLPds9XOfaqiBmdi5fC-33" value="" style="curved=1;endArrow=classic;html=1;rounded=0;exitX=0;exitY=0.5;exitDx=0;exitDy=0;entryX=0;entryY=0.75;entryDx=0;entryDy=0;" edge="1" parent="1" source="mzLPds9XOfaqiBmdi5fC-31" target="ZeuMcyJfO8ai9Yq1En-Y-4">
          <mxGeometry width="50" height="50" relative="1" as="geometry">
            <mxPoint x="400" y="320" as="sourcePoint" />
            <mxPoint x="-80" y="110" as="targetPoint" />
            <Array as="points">
              <mxPoint x="-50" y="310" />
              <mxPoint x="-60" y="290" />
              <mxPoint x="-80" y="260" />
              <mxPoint x="-100" y="160" />
            </Array>
          </mxGeometry>
        </mxCell>
      </root>
    </mxGraphModel>
  </diagram>
</mxfile>
